<?xml version="1.0" encoding="utf-8"?>
<!-- Generator: Adobe Illustrator 21.0.0, SVG Export Plug-In . SVG Version: 6.00 Build 0)  -->
<svg version="1.1" id="Laag_1" xmlns="http://www.w3.org/2000/svg" xmlns:xlink="http://www.w3.org/1999/xlink" x="0px" y="0px"
	 viewBox="0 0 1190.6 841.9" style="enable-background:new 0 0 1190.6 841.9;" xml:space="preserve">
<style type="text/css">
	.st0{fill:#F15822;}
	.st1{fill:#13BBB3;}
</style>
<g>
	<path class="st0" d="M901.1,228.1c-108.4,0-196.5,88.1-196.5,196.5s88.1,196.5,196.5,196.5s196.5-88.1,196.5-196.5
		S1009.4,228.1,901.1,228.1z M1000.4,424.6c0,54.9-44.7,99.3-99.3,99.3c-54.9,0-99.3-44.7-99.3-99.3c0-54.9,44.7-99.3,99.3-99.3
		C956,325.3,1000.4,369.7,1000.4,424.6z"/>
	<circle class="st1" cx="1141.9" cy="565.9" r="47.1"/>
	<path class="st0" d="M283.2,283.7h-86v308.2c0,11.8,9.4,21.1,21.1,21.1h64.9c11.8,0,21.1-9.4,21.1-21.1v-287
		C304.3,293,294.7,283.7,283.2,283.7z"/>
	<path class="st0" d="M297.7,90.5c-22.6-15.7-70-42.3-133.1-42.3c-51,0-93.6,19.3-123.4,55.5C15.2,135.2,1,177.1,1,222.1v463.6
		c0,11.8,9.4,21.1,21.1,21.1H87c11.8,0,21.1-9.4,21.1-21.1V329.6h53.7v-71.8c0-11.8-9.4-21.1-21.1-21.1l-32.6-0.6v-16
		c0-54,31.1-73.3,60.1-73.3c28.7,0,58.3,9.7,75.5,25.1c4.8,4.2,11.2,6,17.2,5.1c6.3-0.9,11.8-4.8,14.8-10.3l28.1-48
		C309.2,108.9,306.5,96.9,297.7,90.5z"/>
	<path class="st0" d="M729.3,142.4h-68.2c-8.8,0-16.6,5.4-19.9,13l-0.3,0.9L526.5,456.6l-88.1-206.8v-0.3
		c-3.3-7.8-10.9-13.3-19.9-13.3H349c-12.1,0-21.7,9.7-21.7,21.7c0,3,0.6,5.7,1.5,8.1l142.8,334.7L407,770.8
		c-1.2,2.4-1.8,5.4-1.8,8.5c0,12.1,9.7,21.7,21.7,21.7h68.2c8.8,0,16.6-5.4,19.9-13l234.5-616.6c0.9-2.1,1.2-4.5,1.2-7.2
		C751,152.1,741.4,142.4,729.3,142.4z"/>
	<path class="st0" d="M407,770.8L407,770.8L407,770.8z"/>
</g>
</svg>
